<?xml version="1.0" encoding="UTF-8" standalone="no"?>
<!-- Created with Inkscape (http://www.inkscape.org/) -->

<svg
   xmlns:dc="http://purl.org/dc/elements/1.1/"
   xmlns:cc="http://creativecommons.org/ns#"
   xmlns:rdf="http://www.w3.org/1999/02/22-rdf-syntax-ns#"
   xmlns:svg="http://www.w3.org/2000/svg"
   xmlns="http://www.w3.org/2000/svg"
   xmlns:sodipodi="http://sodipodi.sourceforge.net/DTD/sodipodi-0.dtd"
   xmlns:inkscape="http://www.inkscape.org/namespaces/inkscape"
   version="1.1"
   id="svg2"
   xml:space="preserve"
   width="760"
   height="549.44"
   viewBox="0 0 760 549.44"
   sodipodi:docname="scaffold_screening.svg"
   inkscape:version="0.92.5 (0.92.4+202005162354+6c0c36e)"><metadata
     id="metadata8"><rdf:RDF><cc:Work
         rdf:about=""><dc:format>image/svg+xml</dc:format><dc:type
           rdf:resource="http://purl.org/dc/dcmitype/StillImage" /><dc:title></dc:title></cc:Work></rdf:RDF></metadata><defs
     id="defs6"><clipPath
       clipPathUnits="userSpaceOnUse"
       id="clipPath18"><path
         d="M 0,0 H 2375 V 1716.1096 H 0 Z"
         id="path16"
         inkscape:connector-curvature="0"
         style="clip-rule:evenodd" /></clipPath><clipPath
       clipPathUnits="userSpaceOnUse"
       id="clipPath30"><path
         d="M 0,0 H 2375 V 1713.1147 H 0 Z"
         id="path28"
         inkscape:connector-curvature="0"
         style="clip-rule:evenodd" /></clipPath><linearGradient
       x1="0"
       y1="0"
       x2="0"
       y2="1"
       gradientUnits="userSpaceOnUse"
       gradientTransform="matrix(189.6,0,0,-115.2,-0.13999998,115.13133)"
       spreadMethod="pad"
       id="linearGradient38"><stop
         style="stop-opacity:1;stop-color:#ffffff"
         offset="0"
         id="stop34" /><stop
         style="stop-opacity:1;stop-color:#99ff99"
         offset="1"
         id="stop36" /></linearGradient></defs><sodipodi:namedview
     pagecolor="#ffffff"
     bordercolor="#666666"
     borderopacity="1"
     objecttolerance="10"
     gridtolerance="10"
     guidetolerance="10"
     inkscape:pageopacity="0"
     inkscape:pageshadow="2"
     inkscape:window-width="1311"
     inkscape:window-height="750"
     id="namedview4"
     showgrid="false"
     inkscape:zoom="1.0183697"
     inkscape:cx="380"
     inkscape:cy="274.72"
     inkscape:window-x="49"
     inkscape:window-y="330"
     inkscape:window-maximized="1"
     inkscape:current-layer="g10" /><g
     id="g10"
     inkscape:groupmode="layer"
     inkscape:label="scaffold_screening"
     transform="matrix(0.31999998,0,0,0.31999998,0,1.7069333e-5)"><g
       id="g12"><g
         id="g14"
         clip-path="url(#clipPath18)"><g
           id="g20"
           transform="scale(2.9949558)"><path
             d="M 0,0 H 793 V 573 H 0 Z"
             style="fill:#ffffff;fill-opacity:1;fill-rule:nonzero;stroke:none"
             id="path22"
             inkscape:connector-curvature="0" /></g></g></g><g
       id="g24"><g
         id="g26"
         clip-path="url(#clipPath30)"><g
           id="g32"
           transform="matrix(2.9949558,0,0,2.9949558,1.4974779,1.4974779)"><path
             d="m 73,91 h 646 c 2.35809,0 4.71045,0.115562 7.05719,0.346695 2.34674,0.231132 4.67651,0.576721 6.98926,1.036758 2.3128,0.460045 4.59747,1.032318 6.854,1.716828 2.25659,0.684517 4.47418,1.477981 6.65271,2.380378 2.17865,0.902413 4.3078,1.909417 6.38745,3.021012 2.07965,1.111599 4.0998,2.322429 6.06043,3.632499 1.96075,1.31008 3.85254,2.71311 5.67535,4.20908 1.82282,1.49595 3.56793,3.07763 5.23529,4.74505 1.66742,1.66742 3.24915,3.41255 4.74506,5.23538 1.49597,1.82282 2.89899,3.71457 4.20904,5.67524 1.31012,1.96068 2.52094,3.98085 3.63257,6.0605 1.11164,2.07966 2.11859,4.20878 3.02094,6.38736 0.9024,2.17859 1.69592,4.39616 2.38043,6.65271 0.68451,2.25654 1.25677,4.54121 1.7168,6.85399 0.46008,2.31279 0.80572,4.64254 1.03686,6.98927 0.23114,2.34674 0.34668,4.69916 0.34662,7.05725 v 336 c 6e-5,2.35806 -0.11548,4.71048 -0.34656,7.05719 -0.23114,2.34671 -0.57678,4.67642 -1.03686,6.9892 -0.46002,2.3128 -1.03229,4.59747 -1.7168,6.85406 -0.68457,2.25653 -1.47809,4.47406 -2.38049,6.65265 -0.90235,2.17865 -1.9093,4.30774 -3.02094,6.38739 -1.11163,2.07965 -2.32245,4.09979 -3.63257,6.06049 -1.31005,1.96069 -2.71307,3.85247 -4.20904,5.67529 -1.49591,1.82281 -3.07764,3.56793 -4.74506,5.23535 -1.66736,1.66742 -3.41241,3.24915 -5.23523,4.74506 -1.82281,1.49591 -3.7146,2.89892 -5.67535,4.20898 -1.96063,1.31012 -3.98078,2.52094 -6.06043,3.63257 -2.07971,1.11157 -4.20886,2.11859 -6.38751,3.021 -2.17853,0.90246 -4.39612,1.69592 -6.65271,2.38043 -2.25653,0.68451 -4.5412,1.25677 -6.854,1.7168 -2.31275,0.46008 -4.64246,0.80566 -6.9892,1.0368 C 723.71051,570.8844 721.35809,571 719,571 H 73 c -2.358086,0 -4.710503,-0.1156 -7.057236,-0.34674 -2.346733,-0.23114 -4.676491,-0.57672 -6.989269,-1.0368 -2.312778,-0.46003 -4.597443,-1.03229 -6.853992,-1.7168 -2.25655,-0.68451 -4.474118,-1.47797 -6.65271,-2.38043 -2.178589,-0.90241 -4.307709,-1.90943 -6.387356,-3.021 -2.079647,-1.11163 -4.099816,-2.32245 -6.060497,-3.63257 -1.960677,-1.31006 -3.852431,-2.71307 -5.675259,-4.20898 -1.822825,-1.49591 -3.567949,-3.07764 -5.235371,-4.74506 -1.667421,-1.66742 -3.249107,-3.41254 -4.745062,-5.23535 -1.495956,-1.82282 -2.898977,-3.7146 -4.209062,-5.67529 -1.310083,-1.9607 -2.520922,-3.98084 -3.632518,-6.06049 -1.1115952,-2.07965 -2.1185932,-4.20874 -3.0209952,-6.38739 -0.9024014,-2.17859 -1.6958603,-4.39612 -2.3803773,-6.65265 -0.6845171,-2.25659 -1.2567956,-4.54126 -1.7168359,-6.854 C 1.9234194,510.73367 1.5778328,508.40393 1.3466997,506.05722 1.1155666,503.71048 1,501.35806 1,499 V 163 c 0,-2.35809 0.1155666,-4.71051 0.3466997,-7.05725 0.2311331,-2.34673 0.5767197,-4.67648 1.0367599,-6.98927 0.4600403,-2.31278 1.0323188,-4.59745 1.7168359,-6.85399 0.684517,-2.25655 1.4779759,-4.47412 2.3803773,-6.65271 0.902402,-2.17858 1.9094,-4.3077 3.0209952,-6.38736 1.111596,-2.07965 2.322435,-4.09982 3.632518,-6.0605 1.310085,-1.96067 2.713106,-3.85242 4.209062,-5.67524 1.495955,-1.82283 3.077641,-3.56796 4.745062,-5.23538 1.667422,-1.66742 3.412546,-3.2491 5.235371,-4.74505 1.822828,-1.49597 3.714582,-2.899 5.675259,-4.20908 1.960681,-1.31007 3.980846,-2.52091 6.060493,-3.632507 2.079651,-1.111595 4.208771,-2.118591 6.387356,-3.021004 2.178592,-0.902397 4.39616,-1.695854 6.65271,-2.380371 2.256553,-0.684517 4.541218,-1.25679 6.853996,-1.716835 2.312778,-0.460037 4.642536,-0.805618 6.989269,-1.03675 C 68.289497,91.11557 70.641914,91 73,91 Z"
             style="fill:url(#linearGradient38);fill-opacity:1;fill-rule:nonzero;stroke:none"
             id="path40"
             inkscape:connector-curvature="0" /><path
             d="m 73,91 h 646 c 2.35809,0 4.71045,0.115562 7.05719,0.346695 2.34674,0.231132 4.67651,0.576721 6.98926,1.036758 2.3128,0.460045 4.59747,1.032318 6.854,1.716828 2.25659,0.684517 4.47418,1.477981 6.65271,2.380378 2.17865,0.902413 4.3078,1.909417 6.38745,3.021012 2.07965,1.111599 4.0998,2.322429 6.06043,3.632499 1.96075,1.31008 3.85254,2.71311 5.67535,4.20908 1.82282,1.49595 3.56793,3.07763 5.23529,4.74505 1.66742,1.66742 3.24915,3.41255 4.74506,5.23538 1.49597,1.82282 2.89899,3.71457 4.20904,5.67524 1.31012,1.96068 2.52094,3.98085 3.63257,6.0605 1.11164,2.07966 2.11859,4.20878 3.02094,6.38736 0.9024,2.17859 1.69592,4.39616 2.38043,6.65271 0.68451,2.25654 1.25677,4.54121 1.7168,6.85399 0.46008,2.31279 0.80572,4.64254 1.03686,6.98927 0.23114,2.34674 0.34668,4.69916 0.34662,7.05725 v 336 c 6e-5,2.35806 -0.11548,4.71048 -0.34656,7.05719 -0.23114,2.34671 -0.57678,4.67642 -1.03686,6.9892 -0.46002,2.3128 -1.03229,4.59747 -1.7168,6.85406 -0.68457,2.25653 -1.47809,4.47406 -2.38049,6.65265 -0.90235,2.17865 -1.9093,4.30774 -3.02094,6.38739 -1.11163,2.07965 -2.32245,4.09979 -3.63257,6.06049 -1.31005,1.96069 -2.71307,3.85247 -4.20904,5.67529 -1.49591,1.82281 -3.07764,3.56793 -4.74506,5.23535 -1.66736,1.66742 -3.41241,3.24915 -5.23523,4.74506 -1.82281,1.49591 -3.7146,2.89892 -5.67535,4.20898 -1.96063,1.31012 -3.98078,2.52094 -6.06043,3.63257 -2.07971,1.11157 -4.20886,2.11859 -6.38751,3.021 -2.17853,0.90246 -4.39612,1.69592 -6.65271,2.38043 -2.25653,0.68451 -4.5412,1.25677 -6.854,1.7168 -2.31275,0.46008 -4.64246,0.80566 -6.9892,1.0368 C 723.71051,570.8844 721.35809,571 719,571 H 73 c -2.358086,0 -4.710503,-0.1156 -7.057236,-0.34674 -2.346733,-0.23114 -4.676491,-0.57672 -6.989269,-1.0368 -2.312778,-0.46003 -4.597443,-1.03229 -6.853992,-1.7168 -2.25655,-0.68451 -4.474118,-1.47797 -6.65271,-2.38043 -2.178589,-0.90241 -4.307709,-1.90943 -6.387356,-3.021 -2.079647,-1.11163 -4.099816,-2.32245 -6.060497,-3.63257 -1.960677,-1.31006 -3.852431,-2.71307 -5.675259,-4.20898 -1.822825,-1.49591 -3.567949,-3.07764 -5.235371,-4.74506 -1.667421,-1.66742 -3.249107,-3.41254 -4.745062,-5.23535 -1.495956,-1.82282 -2.898977,-3.7146 -4.209062,-5.67529 -1.310083,-1.9607 -2.520922,-3.98084 -3.632518,-6.06049 -1.1115952,-2.07965 -2.1185932,-4.20874 -3.0209952,-6.38739 -0.9024014,-2.17859 -1.6958603,-4.39612 -2.3803773,-6.65265 -0.6845171,-2.25659 -1.2567956,-4.54126 -1.7168359,-6.854 C 1.9234194,510.73367 1.5778328,508.40393 1.3466997,506.05722 1.1155666,503.71048 1,501.35806 1,499 V 163 c 0,-2.35809 0.1155666,-4.71051 0.3466997,-7.05725 0.2311331,-2.34673 0.5767197,-4.67648 1.0367599,-6.98927 0.4600403,-2.31278 1.0323188,-4.59745 1.7168359,-6.85399 0.684517,-2.25655 1.4779759,-4.47412 2.3803773,-6.65271 0.902402,-2.17858 1.9094,-4.3077 3.0209952,-6.38736 1.111596,-2.07965 2.322435,-4.09982 3.632518,-6.0605 1.310085,-1.96067 2.713106,-3.85242 4.209062,-5.67524 1.495955,-1.82283 3.077641,-3.56796 4.745062,-5.23538 1.667422,-1.66742 3.412546,-3.2491 5.235371,-4.74505 1.822828,-1.49597 3.714582,-2.899 5.675259,-4.20908 1.960681,-1.31007 3.980846,-2.52091 6.060493,-3.632507 2.079651,-1.111595 4.208771,-2.118591 6.387356,-3.021004 2.178592,-0.902397 4.39616,-1.695854 6.65271,-2.380371 2.256553,-0.684517 4.541218,-1.25679 6.853996,-1.716835 2.312778,-0.460037 4.642536,-0.805618 6.989269,-1.03675 C 68.289497,91.11557 70.641914,91 73,91 Z"
             style="fill:none;stroke:#82b366;stroke-width:1;stroke-linecap:butt;stroke-linejoin:miter;stroke-miterlimit:10;stroke-dasharray:none;stroke-opacity:1"
             id="path42"
             inkscape:connector-curvature="0" /><path
             d="m 361,81 v 56.39999"
             style="fill:none;stroke:#000000;stroke-width:1;stroke-linecap:butt;stroke-linejoin:miter;stroke-miterlimit:10;stroke-dasharray:none;stroke-opacity:1"
             id="path44"
             inkscape:connector-curvature="0" /><path
             d="m 361,144.14999 -4.5,-9 4.5,2.25 4.5,-2.25 z"
             style="fill:#000000;fill-opacity:1;fill-rule:nonzero;stroke:none"
             id="path46"
             inkscape:connector-curvature="0" /><path
             d="m 361,144.14999 -4.5,-9 4.5,2.25 4.5,-2.25 z"
             style="fill:none;stroke:#000000;stroke-width:1;stroke-linecap:butt;stroke-linejoin:miter;stroke-miterlimit:10;stroke-dasharray:none;stroke-opacity:1"
             id="path48"
             inkscape:connector-curvature="0" /><path
             d="m 361,207.5 v 9.89999"
             style="fill:none;stroke:#000000;stroke-width:1;stroke-linecap:butt;stroke-linejoin:miter;stroke-miterlimit:10;stroke-dasharray:none;stroke-opacity:1"
             id="path50"
             inkscape:connector-curvature="0" /><path
             d="m 361,224.14999 -4.5,-9 4.5,2.25 4.5,-2.25 z"
             style="fill:#000000;fill-opacity:1;fill-rule:nonzero;stroke:none"
             id="path52"
             inkscape:connector-curvature="0" /><path
             d="m 361,224.14999 -4.5,-9 4.5,2.25 4.5,-2.25 z"
             style="fill:none;stroke:#000000;stroke-width:1;stroke-linecap:butt;stroke-linejoin:miter;stroke-miterlimit:10;stroke-dasharray:none;stroke-opacity:1"
             id="path54"
             inkscape:connector-curvature="0" /><path
             d="m 301,147.5 h 120 v 60 H 301 Z"
             style="fill:#fff2cc;fill-opacity:1;fill-rule:nonzero;stroke:none"
             id="path56"
             inkscape:connector-curvature="0" /><path
             d="m 301,147.5 h 120 v 60 H 301 Z"
             style="fill:none;stroke:#d6b656;stroke-width:1;stroke-linecap:butt;stroke-linejoin:miter;stroke-miterlimit:10;stroke-dasharray:none;stroke-opacity:1"
             id="path58"
             inkscape:connector-curvature="0" /></g><g
           id="g60"
           transform="scale(2.9949558)"><text
             transform="translate(322.76563,175)"
             style="font-variant:normal;font-weight:normal;font-size:16px;font-family:'Liberation Sans';-inkscape-font-specification:LiberationSans;writing-mode:lr-tb;fill:#000000;fill-opacity:1;fill-rule:nonzero;stroke:none"
             id="text64"><tspan
               x="0 9.7734375 13.328125 22.226562 31.125 40.023438 45.351562 54.25 59.578125 63.132812 72.03125"
               y="0"
               sodipodi:role="line"
               id="tspan62">Fingerprint</tspan></text>
<text
             transform="translate(303.65625,194)"
             style="font-variant:normal;font-weight:normal;font-size:16px;font-family:'Liberation Sans';-inkscape-font-specification:LiberationSans;writing-mode:lr-tb;fill:#000000;fill-opacity:1;fill-rule:nonzero;stroke:none"
             id="text68"><tspan
               x="0 8 11.554688 24.882812 28.4375 31.992188 40.890625 46.21875 49.773438 54.21875 62.21875 66.664062 74.664062 83.5625 92.460938 97.789062 105.78906"
               y="0"
               sodipodi:role="line"
               id="tspan66">similarity search</tspan></text>
</g><g
           id="g70"
           transform="matrix(2.9949558,0,0,2.9949558,1.4974779,1.4974779)"><path
             d="M 516,177.5 H 431.10001"
             style="fill:none;stroke:#000000;stroke-width:1;stroke-linecap:butt;stroke-linejoin:miter;stroke-miterlimit:10;stroke-dasharray:none;stroke-opacity:1"
             id="path72"
             inkscape:connector-curvature="0" /><path
             d="m 424.35001,177.5 9,-4.5 -2.25,4.5 2.25,4.5 z"
             style="fill:#000000;fill-opacity:1;fill-rule:nonzero;stroke:none"
             id="path74"
             inkscape:connector-curvature="0" /><path
             d="m 424.35001,177.5 9,-4.5 -2.25,4.5 2.25,4.5 z"
             style="fill:none;stroke:#000000;stroke-width:1;stroke-linecap:butt;stroke-linejoin:miter;stroke-miterlimit:10;stroke-dasharray:none;stroke-opacity:1"
             id="path76"
             inkscape:connector-curvature="0" /><path
             d="m 522.75,155 h 136.5 c 0.44318,0 0.88214,0.0432 1.31683,0.1297 0.43463,0.0865 0.85669,0.21449 1.26618,0.38411 0.40948,0.1696 0.79852,0.37753 1.16705,0.62376 0.36853,0.24623 0.70947,0.52605 1.02289,0.83945 0.31341,0.3134 0.5932,0.65436 0.83942,1.02287 0.24621,0.36852 0.4541,0.75751 0.62371,1.16698 0.16962,0.40947 0.29767,0.83154 0.38416,1.26625 0.0865,0.43471 0.1297,0.87366 0.12976,1.31688 v 31.5 c -6e-5,0.44319 -0.0433,0.88214 -0.12976,1.31682 -0.0865,0.43471 -0.21454,0.85679 -0.38416,1.26626 -0.16961,0.40947 -0.3775,0.79848 -0.62371,1.16701 -0.24622,0.36852 -0.52601,0.70947 -0.83942,1.02287 -0.31342,0.3134 -0.65436,0.59321 -1.02289,0.83944 -0.36853,0.24623 -0.75757,0.45416 -1.16705,0.62376 -0.40949,0.1696 -0.83155,0.29765 -1.26618,0.38413 -0.43469,0.0865 -0.87365,0.12969 -1.31683,0.12971 h -136.5 c -0.44318,-2e-5 -0.88214,-0.0432 -1.31689,-0.12971 -0.43476,-0.0865 -0.85682,-0.21453 -1.2663,-0.38414 -0.40949,-0.16961 -0.79852,-0.37752 -1.16699,-0.62377 -0.36847,-0.24621 -0.70941,-0.52602 -1.02283,-0.83942 -0.31342,-0.3134 -0.5932,-0.65435 -0.83948,-1.02287 -0.24627,-0.36853 -0.45416,-0.75754 -0.62378,-1.16701 -0.16961,-0.40947 -0.2976,-0.83155 -0.38409,-1.26625 C 516.04321,194.13214 516,193.69319 516,193.25 v -31.5 c 0,-0.44322 0.0432,-0.88217 0.12964,-1.31688 0.0865,-0.43471 0.21448,-0.85678 0.38409,-1.26625 0.16962,-0.40947 0.37751,-0.79846 0.62378,-1.16698 0.24628,-0.36851 0.52606,-0.70947 0.83948,-1.02287 0.31342,-0.3134 0.65436,-0.59323 1.02283,-0.83946 0.36847,-0.24623 0.7575,-0.45415 1.16699,-0.62375 0.40948,-0.16962 0.83154,-0.29765 1.2663,-0.38411 C 521.86786,155.04323 522.30682,155 522.75,155 Z"
             style="fill:#f8cecc;fill-opacity:1;fill-rule:nonzero;stroke:none"
             id="path78"
             inkscape:connector-curvature="0" /><path
             d="m 522.75,155 h 136.5 c 0.44318,0 0.88214,0.0432 1.31683,0.1297 0.43463,0.0865 0.85669,0.21449 1.26618,0.38411 0.40948,0.1696 0.79852,0.37753 1.16705,0.62376 0.36853,0.24623 0.70947,0.52605 1.02289,0.83945 0.31341,0.3134 0.5932,0.65436 0.83942,1.02287 0.24621,0.36852 0.4541,0.75751 0.62371,1.16698 0.16962,0.40947 0.29767,0.83154 0.38416,1.26625 0.0865,0.43471 0.1297,0.87366 0.12976,1.31688 v 31.5 c -6e-5,0.44319 -0.0433,0.88214 -0.12976,1.31682 -0.0865,0.43471 -0.21454,0.85679 -0.38416,1.26626 -0.16961,0.40947 -0.3775,0.79848 -0.62371,1.16701 -0.24622,0.36852 -0.52601,0.70947 -0.83942,1.02287 -0.31342,0.3134 -0.65436,0.59321 -1.02289,0.83944 -0.36853,0.24623 -0.75757,0.45416 -1.16705,0.62376 -0.40949,0.1696 -0.83155,0.29765 -1.26618,0.38413 -0.43469,0.0865 -0.87365,0.12969 -1.31683,0.12971 h -136.5 c -0.44318,-2e-5 -0.88214,-0.0432 -1.31689,-0.12971 -0.43476,-0.0865 -0.85682,-0.21453 -1.2663,-0.38414 -0.40949,-0.16961 -0.79852,-0.37752 -1.16699,-0.62377 -0.36847,-0.24621 -0.70941,-0.52602 -1.02283,-0.83942 -0.31342,-0.3134 -0.5932,-0.65435 -0.83948,-1.02287 -0.24627,-0.36853 -0.45416,-0.75754 -0.62378,-1.16701 -0.16961,-0.40947 -0.2976,-0.83155 -0.38409,-1.26625 C 516.04321,194.13214 516,193.69319 516,193.25 v -31.5 c 0,-0.44322 0.0432,-0.88217 0.12964,-1.31688 0.0865,-0.43471 0.21448,-0.85678 0.38409,-1.26625 0.16962,-0.40947 0.37751,-0.79846 0.62378,-1.16698 0.24628,-0.36851 0.52606,-0.70947 0.83948,-1.02287 0.31342,-0.3134 0.65436,-0.59323 1.02283,-0.83946 0.36847,-0.24623 0.7575,-0.45415 1.16699,-0.62375 0.40948,-0.16962 0.83154,-0.29765 1.2663,-0.38411 C 521.86786,155.04323 522.30682,155 522.75,155 Z"
             style="fill:none;stroke:#b85450;stroke-width:1;stroke-linecap:butt;stroke-linejoin:miter;stroke-miterlimit:10;stroke-dasharray:none;stroke-opacity:1"
             id="path80"
             inkscape:connector-curvature="0" /></g><g
           id="g82"
           transform="scale(2.9949558)"><text
             transform="translate(530.07813,175)"
             style="font-variant:normal;font-weight:normal;font-size:16px;font-family:'Liberation Sans';-inkscape-font-specification:LiberationSans;writing-mode:lr-tb;fill:#000000;fill-opacity:1;fill-rule:nonzero;stroke:none"
             id="text86"><tspan
               x="0 11.554688 16.882812 25.78125 34.679688 39.125 48.023438 52.46875 60.46875 69.367188 82.695312 91.59375 95.148438 104.04688 112.94531"
               y="0"
               sodipodi:role="line"
               id="tspan84">Create combined</tspan></text>
<text
             transform="translate(551.42188,194)"
             style="font-variant:normal;font-weight:normal;font-size:16px;font-family:'Liberation Sans';-inkscape-font-specification:LiberationSans;writing-mode:lr-tb;fill:#000000;fill-opacity:1;fill-rule:nonzero;stroke:none"
             id="text90"><tspan
               x="0 4.4453125 8 16.898438 25.796875 34.695312 40.023438 48.921875 54.25 57.804688 66.703125 71.148438"
               y="0"
               sodipodi:role="line"
               id="tspan88">fingerprints</tspan></text>
</g><g
           id="g92"
           transform="matrix(2.9949558,0,0,2.9949558,1.4974779,1.4974779)"><path
             d="m 361,307.5 v 9.89999"
             style="fill:none;stroke:#000000;stroke-width:1;stroke-linecap:butt;stroke-linejoin:miter;stroke-miterlimit:10;stroke-dasharray:none;stroke-opacity:1"
             id="path94"
             inkscape:connector-curvature="0" /><path
             d="m 361,324.14999 -4.5,-9 4.5,2.25 4.5,-2.25 z"
             style="fill:#000000;fill-opacity:1;fill-rule:nonzero;stroke:none"
             id="path96"
             inkscape:connector-curvature="0" /><path
             d="m 361,324.14999 -4.5,-9 4.5,2.25 4.5,-2.25 z"
             style="fill:none;stroke:#000000;stroke-width:1;stroke-linecap:butt;stroke-linejoin:miter;stroke-miterlimit:10;stroke-dasharray:none;stroke-opacity:1"
             id="path98"
             inkscape:connector-curvature="0" /><path
             d="m 421,267.5 c 0,1.31006 -0.0963,2.61694 -0.28894,3.92068 -0.19263,1.30375 -0.48062,2.59803 -0.86401,3.88288 -0.38334,1.28488 -0.86023,2.55417 -1.43067,3.8078 -0.57043,1.25366 -1.23166,2.48566 -1.98367,3.69595 -0.75198,1.2103 -1.59113,2.39316 -2.51749,3.54852 -0.92633,1.15537 -1.93536,2.27771 -3.0271,3.36698 -1.0917,1.08926 -2.26089,2.14026 -3.5075,3.15295 -1.24665,1.01264 -2.56473,1.98212 -3.95423,2.90848 -1.38949,0.92636 -2.84378,1.80508 -4.36279,2.63617 -1.51901,0.83109 -3.09549,1.61053 -4.72943,2.33835 -1.63388,0.72784 -3.31732,1.40054 -5.05039,2.0181 -1.73303,0.61752 -3.50729,1.17697 -5.32281,1.67828 -1.81549,0.50131 -3.66348,0.94214 -5.54395,1.32242 -1.88043,0.38028 -3.7843,0.69821 -5.71164,0.95379 -1.9273,0.25559 -3.86877,0.44761 -5.82437,0.57602 C 364.92542,307.43579 362.96509,307.5 361,307.5 c -1.96506,0 -3.92542,-0.0642 -5.88104,-0.19263 -1.9556,-0.12841 -3.89707,-0.32043 -5.8244,-0.57602 -1.92731,-0.25558 -3.83121,-0.57348 -5.71167,-0.95376 -1.88047,-0.38031 -3.72843,-0.82114 -5.54395,-1.32245 -1.81549,-0.50131 -3.58975,-1.06076 -5.32275,-1.67828 -1.73307,-0.61756 -3.41654,-1.29026 -5.05042,-2.0181 -1.63388,-0.72782 -3.21036,-1.50726 -4.72937,-2.33835 -1.51904,-0.83109 -2.97333,-1.70981 -4.36285,-2.63617 -1.3895,-0.92636 -2.70755,-1.89584 -3.95423,-2.90851 -1.24661,-1.01266 -2.4158,-2.06366 -3.50756,-3.15292 -1.09171,-1.08927 -2.10074,-2.21161 -3.02704,-3.36698 -0.92633,-1.15536 -1.76551,-2.33822 -2.51752,-3.54852 -0.75198,-1.21029 -1.41318,-2.44229 -1.98364,-3.69592 -0.57041,-1.25366 -1.04731,-2.52295 -1.4307,-3.80783 -0.38336,-1.28485 -0.67135,-2.57913 -0.86395,-3.88288 C 301.09631,270.11694 301,268.81006 301,267.5 c 0,-1.31003 0.0963,-2.61691 0.28891,-3.92068 0.1926,-1.30375 0.48059,-2.59806 0.86395,-3.88294 0.38339,-1.28488 0.86029,-2.55414 1.43073,-3.80777 0.57043,-1.25365 1.23163,-2.48563 1.98361,-3.69597 0.75201,-1.21032 1.59119,-2.39317 2.51752,-3.54852 0.9263,-1.15537 1.93533,-2.27768 3.02704,-3.36696 1.09176,-1.08925 2.26095,-2.14021 3.50756,-3.15291 1.24668,-1.01268 2.56473,-1.98219 3.95423,-2.90854 1.38952,-0.92633 2.84381,-1.80505 4.36285,-2.63615 1.51901,-0.83109 3.09549,-1.61055 4.72937,-2.33838 1.63388,-0.72781 3.31735,-1.4005 5.05042,-2.01805 1.733,-0.61754 3.50726,-1.17699 5.32275,-1.67833 1.81552,-0.50133 3.66348,-0.94212 5.54395,-1.3224 1.88046,-0.3803 3.78433,-0.69823 5.71164,-0.95381 1.92733,-0.25557 3.86883,-0.44756 5.82443,-0.57596 1.95562,-0.12841 3.91598,-0.19261 5.88104,-0.19263 1.96509,2e-5 3.92542,0.0642 5.88101,0.19263 1.9556,0.1284 3.89707,0.32039 5.82437,0.57596 1.92734,0.25558 3.83121,0.57351 5.71164,0.95381 1.88047,0.38028 3.72846,0.82107 5.54395,1.3224 1.81552,0.50134 3.58978,1.06079 5.32281,1.67833 1.73307,0.61755 3.41651,1.29024 5.05039,2.01805 1.63394,0.72783 3.21039,1.50729 4.7294,2.33838 1.51904,0.8311 2.97333,1.70982 4.36282,2.63615 1.3895,0.92635 2.70758,1.89588 3.95426,2.90856 1.24661,1.01268 2.41577,2.06364 3.50747,3.15289 1.09177,1.08928 2.1008,2.21159 3.02713,3.36696 0.92633,1.15535 1.76551,2.3382 2.51749,3.54852 0.75201,1.21034 1.41324,2.44234 1.98364,3.69599 0.57047,1.25364 1.04737,2.52287 1.4307,3.80775 0.38339,1.28488 0.67138,2.57919 0.86398,3.88294 C 420.90369,264.88309 421,266.18997 421,267.5 Z"
             style="fill:#d5e8d4;fill-opacity:1;fill-rule:nonzero;stroke:none"
             id="path100"
             inkscape:connector-curvature="0" /><path
             d="m 421,267.5 c 0,1.31006 -0.0963,2.61694 -0.28894,3.92068 -0.19263,1.30375 -0.48062,2.59803 -0.86401,3.88288 -0.38334,1.28488 -0.86023,2.55417 -1.43067,3.8078 -0.57043,1.25366 -1.23166,2.48566 -1.98367,3.69595 -0.75198,1.2103 -1.59113,2.39316 -2.51749,3.54852 -0.92633,1.15537 -1.93536,2.27771 -3.0271,3.36698 -1.0917,1.08926 -2.26089,2.14026 -3.5075,3.15295 -1.24665,1.01264 -2.56473,1.98212 -3.95423,2.90848 -1.38949,0.92636 -2.84378,1.80508 -4.36279,2.63617 -1.51901,0.83109 -3.09549,1.61053 -4.72943,2.33835 -1.63388,0.72784 -3.31732,1.40054 -5.05039,2.0181 -1.73303,0.61752 -3.50729,1.17697 -5.32281,1.67828 -1.81549,0.50131 -3.66348,0.94214 -5.54395,1.32242 -1.88043,0.38028 -3.7843,0.69821 -5.71164,0.95379 -1.9273,0.25559 -3.86877,0.44761 -5.82437,0.57602 C 364.92542,307.43579 362.96509,307.5 361,307.5 c -1.96506,0 -3.92542,-0.0642 -5.88104,-0.19263 -1.9556,-0.12841 -3.89707,-0.32043 -5.8244,-0.57602 -1.92731,-0.25558 -3.83121,-0.57348 -5.71167,-0.95376 -1.88047,-0.38031 -3.72843,-0.82114 -5.54395,-1.32245 -1.81549,-0.50131 -3.58975,-1.06076 -5.32275,-1.67828 -1.73307,-0.61756 -3.41654,-1.29026 -5.05042,-2.0181 -1.63388,-0.72782 -3.21036,-1.50726 -4.72937,-2.33835 -1.51904,-0.83109 -2.97333,-1.70981 -4.36285,-2.63617 -1.3895,-0.92636 -2.70755,-1.89584 -3.95423,-2.90851 -1.24661,-1.01266 -2.4158,-2.06366 -3.50756,-3.15292 -1.09171,-1.08927 -2.10074,-2.21161 -3.02704,-3.36698 -0.92633,-1.15536 -1.76551,-2.33822 -2.51752,-3.54852 -0.75198,-1.21029 -1.41318,-2.44229 -1.98364,-3.69592 -0.57041,-1.25366 -1.04731,-2.52295 -1.4307,-3.80783 -0.38336,-1.28485 -0.67135,-2.57913 -0.86395,-3.88288 C 301.09631,270.11694 301,268.81006 301,267.5 c 0,-1.31003 0.0963,-2.61691 0.28891,-3.92068 0.1926,-1.30375 0.48059,-2.59806 0.86395,-3.88294 0.38339,-1.28488 0.86029,-2.55414 1.43073,-3.80777 0.57043,-1.25365 1.23163,-2.48563 1.98361,-3.69597 0.75201,-1.21032 1.59119,-2.39317 2.51752,-3.54852 0.9263,-1.15537 1.93533,-2.27768 3.02704,-3.36696 1.09176,-1.08925 2.26095,-2.14021 3.50756,-3.15291 1.24668,-1.01268 2.56473,-1.98219 3.95423,-2.90854 1.38952,-0.92633 2.84381,-1.80505 4.36285,-2.63615 1.51901,-0.83109 3.09549,-1.61055 4.72937,-2.33838 1.63388,-0.72781 3.31735,-1.4005 5.05042,-2.01805 1.733,-0.61754 3.50726,-1.17699 5.32275,-1.67833 1.81552,-0.50133 3.66348,-0.94212 5.54395,-1.3224 1.88046,-0.3803 3.78433,-0.69823 5.71164,-0.95381 1.92733,-0.25557 3.86883,-0.44756 5.82443,-0.57596 1.95562,-0.12841 3.91598,-0.19261 5.88104,-0.19263 1.96509,2e-5 3.92542,0.0642 5.88101,0.19263 1.9556,0.1284 3.89707,0.32039 5.82437,0.57596 1.92734,0.25558 3.83121,0.57351 5.71164,0.95381 1.88047,0.38028 3.72846,0.82107 5.54395,1.3224 1.81552,0.50134 3.58978,1.06079 5.32281,1.67833 1.73307,0.61755 3.41651,1.29024 5.05039,2.01805 1.63394,0.72783 3.21039,1.50729 4.7294,2.33838 1.51904,0.8311 2.97333,1.70982 4.36282,2.63615 1.3895,0.92635 2.70758,1.89588 3.95426,2.90856 1.24661,1.01268 2.41577,2.06364 3.50747,3.15289 1.09177,1.08928 2.1008,2.21159 3.02713,3.36696 0.92633,1.15535 1.76551,2.3382 2.51749,3.54852 0.75201,1.21034 1.41324,2.44234 1.98364,3.69599 0.57047,1.25364 1.04737,2.52287 1.4307,3.80775 0.38339,1.28488 0.67138,2.57919 0.86398,3.88294 C 420.90369,264.88309 421,266.18997 421,267.5 Z"
             style="fill:none;stroke:#82b366;stroke-width:1;stroke-linecap:butt;stroke-linejoin:miter;stroke-miterlimit:10;stroke-dasharray:none;stroke-opacity:1"
             id="path102"
             inkscape:connector-curvature="0" /></g><g
           id="g104"
           transform="scale(2.9949558)"><text
             transform="translate(337.875,255)"
             style="font-variant:normal;font-weight:normal;font-size:16px;font-family:'Liberation Sans';-inkscape-font-specification:LiberationSans;writing-mode:lr-tb;fill:#000000;fill-opacity:1;fill-rule:nonzero;stroke:none"
             id="text108"><tspan
               x="0 8 16.898438 25.796875 30.242188 41.796875"
               y="0"
               sodipodi:role="line"
               id="tspan106">Top N.</tspan></text>
<text
             transform="translate(337.89063,274)"
             style="font-variant:normal;font-weight:normal;font-size:16px;font-family:'Liberation Sans';-inkscape-font-specification:LiberationSans;writing-mode:lr-tb;fill:#000000;fill-opacity:1;fill-rule:nonzero;stroke:none"
             id="text112"><tspan
               x="0 8 11.554688 24.882812 28.4375 31.992188 40.890625"
               y="0"
               sodipodi:role="line"
               id="tspan110">similar</tspan></text>
<text
             transform="translate(324.98438,293)"
             style="font-variant:normal;font-weight:normal;font-size:16px;font-family:'Liberation Sans';-inkscape-font-specification:LiberationSans;writing-mode:lr-tb;fill:#000000;fill-opacity:1;fill-rule:nonzero;stroke:none"
             id="text116"><tspan
               x="0 13.328125 22.226562 25.78125 34.679688 42.679688 51.578125 55.132812 64.03125"
               y="0"
               sodipodi:role="line"
               id="tspan114">molecules</tspan></text>
</g><g
           id="g118"
           transform="matrix(2.9949558,0,0,2.9949558,1.4974779,1.4974779)"><path
             d="m 241,233.5 h 30 v -56 h 19.89999"
             style="fill:none;stroke:#000000;stroke-width:1;stroke-linecap:butt;stroke-linejoin:miter;stroke-miterlimit:10;stroke-dasharray:none;stroke-opacity:1"
             id="path120"
             inkscape:connector-curvature="0" /><path
             d="m 297.64999,177.5 -9,4.5 2.25,-4.5 -2.25,-4.5 z"
             style="fill:#000000;fill-opacity:1;fill-rule:nonzero;stroke:none"
             id="path122"
             inkscape:connector-curvature="0" /><path
             d="m 297.64999,177.5 -9,4.5 2.25,-4.5 -2.25,-4.5 z"
             style="fill:none;stroke:#000000;stroke-width:1;stroke-linecap:butt;stroke-linejoin:miter;stroke-miterlimit:10;stroke-dasharray:none;stroke-opacity:1"
             id="path124"
             inkscape:connector-curvature="0" /><path
             d="m 54,111 h 154 c 1.0808,1e-5 2.15898,0.053 3.23457,0.15892 1.07558,0.10593 2.14337,0.26432 3.20339,0.47517 1.06003,0.21085 2.10716,0.47315 3.14142,0.78688 1.03425,0.31374 2.05062,0.6774 3.04913,1.09099 0.99853,0.41361 1.97438,0.87515 2.92755,1.38463 0.95319,0.50949 1.87911,1.06445 2.77774,1.6649 0.89864,0.60046 1.7657,1.24352 2.60117,1.92916 0.83546,0.68565 1.63531,1.4106 2.39953,2.17482 0.76424,0.76424 1.48918,1.56409 2.17484,2.39956 0.68562,0.83546 1.32866,1.70251 1.92911,2.60115 0.60046,0.89865 1.15544,1.82455 1.66491,2.77773 0.50949,0.95317 0.97104,1.92901 1.38463,2.92754 0.41362,0.99851 0.7773,2.0149 1.09104,3.04916 0.31375,1.03425 0.57605,2.08139 0.78688,3.1414 0.21086,1.06003 0.36926,2.12784 0.4752,3.20343 0.10594,1.07558 0.15891,2.15376 0.15889,3.23456 v 179 c 2e-5,1.08078 -0.0529,2.15897 -0.15887,3.23456 -0.10595,1.07559 -0.26436,2.14337 -0.47522,3.20337 -0.21083,1.06003 -0.47313,2.10717 -0.7869,3.14145 -0.31374,1.03424 -0.6774,2.05062 -1.09102,3.04913 -0.41359,0.99853 -0.87514,1.9744 -1.38461,2.92755 -0.50949,0.95316 -1.06447,1.87906 -1.66493,2.77768 -0.60045,0.89868 -1.24349,1.76575 -1.92911,2.60123 -0.68566,0.83548 -1.4106,1.63531 -2.17484,2.3995 -0.76422,0.76425 -1.56407,1.4892 -2.39953,2.17484 -0.83547,0.68564 -1.70253,1.32867 -2.60117,1.92914 -0.89863,0.60046 -1.82454,1.15542 -2.77772,1.66491 -0.95317,0.50949 -1.92902,0.97104 -2.92756,1.38462 -0.99852,0.4136 -2.01489,0.77728 -3.04914,1.09103 -1.03426,0.31375 -2.08139,0.57605 -3.14142,0.7869 -1.06002,0.21087 -2.12781,0.36929 -3.20339,0.47522 C 210.15898,355.94705 209.0808,356 208,356 H 54 c -1.080788,0 -2.158978,-0.053 -3.234566,-0.15887 -1.075584,-0.10593 -2.14339,-0.26435 -3.203418,-0.47522 -1.060021,-0.21085 -2.107159,-0.47315 -3.141411,-0.7869 -1.034252,-0.31375 -2.05064,-0.67743 -3.049164,-1.09103 -0.99852,-0.41358 -1.974365,-0.87513 -2.92754,-1.38462 -0.953171,-0.50949 -1.879082,-1.06445 -2.777729,-1.66491 -0.898643,-0.60047 -1.765697,-1.2435 -2.601158,-1.92914 -0.835461,-0.68564 -1.635306,-1.41059 -2.39954,-2.17484 -0.764235,-0.76419 -1.489174,-1.56402 -2.17482,-2.3995 -0.685648,-0.83548 -1.328699,-1.70255 -1.929153,-2.60123 -0.600455,-0.89862 -1.155423,-1.82452 -1.664904,-2.77768 -0.509482,-0.95315 -0.971022,-1.92902 -1.384625,-2.92755 -0.413599,-0.99851 -0.777267,-2.01489 -1.091003,-3.04913 -0.313738,-1.03428 -0.576035,-2.08142 -0.786886,-3.14145 -0.210852,-1.06 -0.369244,-2.12778 -0.47518,-3.20337 C 21.052969,325.15897 21.000002,324.08078 21,323 V 144 c 2e-6,-1.0808 0.05297,-2.15898 0.158903,-3.23456 0.105936,-1.07559 0.264328,-2.1434 0.47518,-3.20343 0.210851,-1.06003 0.473146,-2.10716 0.786884,-3.14142 0.313738,-1.03424 0.677406,-2.05063 1.091005,-3.04916 0.413603,-0.99852 0.875143,-1.97437 1.384625,-2.92754 0.509481,-0.95317 1.064449,-1.87908 1.664904,-2.77772 0.600454,-0.89864 1.243505,-1.76569 1.929153,-2.60115 0.685646,-0.83546 1.410585,-1.63531 2.17482,-2.39955 0.764234,-0.76422 1.564083,-1.48916 2.399544,-2.17481 0.83546,-0.68565 1.702514,-1.32871 2.601162,-1.92917 0.898643,-0.60045 1.82455,-1.15541 2.777725,-1.6649 0.953171,-0.50948 1.929016,-0.97102 2.927536,-1.38463 0.998524,-0.41359 2.014912,-0.77725 3.049164,-1.09098 1.034252,-0.31374 2.08139,-0.57604 3.141411,-0.78689 1.060028,-0.21085 2.127834,-0.36924 3.203418,-0.47518 C 51.841022,111.05298 52.919212,111.00001 54,111 Z"
             style="fill:#f8cecc;fill-opacity:1;fill-rule:nonzero;stroke:none"
             id="path126"
             inkscape:connector-curvature="0" /><path
             d="m 54,111 h 154 c 1.0808,1e-5 2.15898,0.053 3.23457,0.15892 1.07558,0.10593 2.14337,0.26432 3.20339,0.47517 1.06003,0.21085 2.10716,0.47315 3.14142,0.78688 1.03425,0.31374 2.05062,0.6774 3.04913,1.09099 0.99853,0.41361 1.97438,0.87515 2.92755,1.38463 0.95319,0.50949 1.87911,1.06445 2.77774,1.6649 0.89864,0.60046 1.7657,1.24352 2.60117,1.92916 0.83546,0.68565 1.63531,1.4106 2.39953,2.17482 0.76424,0.76424 1.48918,1.56409 2.17484,2.39956 0.68562,0.83546 1.32866,1.70251 1.92911,2.60115 0.60046,0.89865 1.15544,1.82455 1.66491,2.77773 0.50949,0.95317 0.97104,1.92901 1.38463,2.92754 0.41362,0.99851 0.7773,2.0149 1.09104,3.04916 0.31375,1.03425 0.57605,2.08139 0.78688,3.1414 0.21086,1.06003 0.36926,2.12784 0.4752,3.20343 0.10594,1.07558 0.15891,2.15376 0.15889,3.23456 v 179 c 2e-5,1.08078 -0.0529,2.15897 -0.15887,3.23456 -0.10595,1.07559 -0.26436,2.14337 -0.47522,3.20337 -0.21083,1.06003 -0.47313,2.10717 -0.7869,3.14145 -0.31374,1.03424 -0.6774,2.05062 -1.09102,3.04913 -0.41359,0.99853 -0.87514,1.9744 -1.38461,2.92755 -0.50949,0.95316 -1.06447,1.87906 -1.66493,2.77768 -0.60045,0.89868 -1.24349,1.76575 -1.92911,2.60123 -0.68566,0.83548 -1.4106,1.63531 -2.17484,2.3995 -0.76422,0.76425 -1.56407,1.4892 -2.39953,2.17484 -0.83547,0.68564 -1.70253,1.32867 -2.60117,1.92914 -0.89863,0.60046 -1.82454,1.15542 -2.77772,1.66491 -0.95317,0.50949 -1.92902,0.97104 -2.92756,1.38462 -0.99852,0.4136 -2.01489,0.77728 -3.04914,1.09103 -1.03426,0.31375 -2.08139,0.57605 -3.14142,0.7869 -1.06002,0.21087 -2.12781,0.36929 -3.20339,0.47522 C 210.15898,355.94705 209.0808,356 208,356 H 54 c -1.080788,0 -2.158978,-0.053 -3.234566,-0.15887 -1.075584,-0.10593 -2.14339,-0.26435 -3.203418,-0.47522 -1.060021,-0.21085 -2.107159,-0.47315 -3.141411,-0.7869 -1.034252,-0.31375 -2.05064,-0.67743 -3.049164,-1.09103 -0.99852,-0.41358 -1.974365,-0.87513 -2.92754,-1.38462 -0.953171,-0.50949 -1.879082,-1.06445 -2.777729,-1.66491 -0.898643,-0.60047 -1.765697,-1.2435 -2.601158,-1.92914 -0.835461,-0.68564 -1.635306,-1.41059 -2.39954,-2.17484 -0.764235,-0.76419 -1.489174,-1.56402 -2.17482,-2.3995 -0.685648,-0.83548 -1.328699,-1.70255 -1.929153,-2.60123 -0.600455,-0.89862 -1.155423,-1.82452 -1.664904,-2.77768 -0.509482,-0.95315 -0.971022,-1.92902 -1.384625,-2.92755 -0.413599,-0.99851 -0.777267,-2.01489 -1.091003,-3.04913 -0.313738,-1.03428 -0.576035,-2.08142 -0.786886,-3.14145 -0.210852,-1.06 -0.369244,-2.12778 -0.47518,-3.20337 C 21.052969,325.15897 21.000002,324.08078 21,323 V 144 c 2e-6,-1.0808 0.05297,-2.15898 0.158903,-3.23456 0.105936,-1.07559 0.264328,-2.1434 0.47518,-3.20343 0.210851,-1.06003 0.473146,-2.10716 0.786884,-3.14142 0.313738,-1.03424 0.677406,-2.05063 1.091005,-3.04916 0.413603,-0.99852 0.875143,-1.97437 1.384625,-2.92754 0.509481,-0.95317 1.064449,-1.87908 1.664904,-2.77772 0.600454,-0.89864 1.243505,-1.76569 1.929153,-2.60115 0.685646,-0.83546 1.410585,-1.63531 2.17482,-2.39955 0.764234,-0.76422 1.564083,-1.48916 2.399544,-2.17481 0.83546,-0.68565 1.702514,-1.32871 2.601162,-1.92917 0.898643,-0.60045 1.82455,-1.15541 2.777725,-1.6649 0.953171,-0.50948 1.929016,-0.97102 2.927536,-1.38463 0.998524,-0.41359 2.014912,-0.77725 3.049164,-1.09098 1.034252,-0.31374 2.08139,-0.57604 3.141411,-0.78689 1.060028,-0.21085 2.127834,-0.36924 3.203418,-0.47518 C 51.841022,111.05298 52.919212,111.00001 54,111 Z"
             style="fill:none;stroke:#b85450;stroke-width:1;stroke-linecap:butt;stroke-linejoin:miter;stroke-miterlimit:10;stroke-dasharray:none;stroke-opacity:1"
             id="path128"
             inkscape:connector-curvature="0" /></g><g
           id="g130"
           transform="scale(2.9949558)"><text
             transform="translate(90.53125,155)"
             style="font-variant:normal;font-weight:normal;font-size:16px;font-family:'Liberation Sans';-inkscape-font-specification:LiberationSans;writing-mode:lr-tb;fill:#000000;fill-opacity:1;fill-rule:nonzero;stroke:none"
             id="text134"><tspan
               x="0 11.554688 20.453125 24.898438 33.796875 42.695312 51.59375 59.59375 68.492188 76.492188"
               y="0"
               sodipodi:role="line"
               id="tspan132">Databases:</tspan></text>
<text
             transform="translate(108.78125,174)"
             style="font-variant:normal;font-weight:normal;font-size:16px;font-family:'Liberation Sans';-inkscape-font-specification:LiberationSans;writing-mode:lr-tb;fill:#000000;fill-opacity:1;fill-rule:nonzero;stroke:none"
             id="text138"><tspan
               x="0 13.328125 17.773438 28.445312 32"
               y="0"
               sodipodi:role="line"
               id="tspan136">MIBiG</tspan></text>
<text
             transform="translate(69.640625,193)"
             style="font-variant:normal;font-weight:normal;font-size:16px;font-family:'Liberation Sans';-inkscape-font-specification:LiberationSans;writing-mode:lr-tb;fill:#000000;fill-opacity:1;fill-rule:nonzero;stroke:none"
             id="text142"><tspan
               x="0 10.671875 15.117188 20.445312 29.34375 38.242188 42.6875 51.585938 64.914062 73.8125 85.367188 96.039062 100.48438 109.38281 113.82812"
               y="0"
               sodipodi:role="line"
               id="tspan140">StreptomeDB 2.0</tspan></text>
<text
             transform="translate(97.65625,212)"
             style="font-variant:normal;font-weight:normal;font-size:16px;font-family:'Liberation Sans';-inkscape-font-specification:LiberationSans;writing-mode:lr-tb;fill:#000000;fill-opacity:1;fill-rule:nonzero;stroke:none"
             id="text146"><tspan
               x="0 11.554688 22.226562 33.78125 44.453125 56.007812"
               y="0"
               sodipodi:role="line"
               id="tspan144">NANPDB</tspan></text>
<text
             transform="translate(95.421875,231)"
             style="font-variant:normal;font-weight:normal;font-size:16px;font-family:'Liberation Sans';-inkscape-font-specification:LiberationSans;writing-mode:lr-tb;fill:#000000;fill-opacity:1;fill-rule:nonzero;stroke:none"
             id="text150"><tspan
               x="0 11.554688 16.882812 25.78125 34.679688 45.351562 54.25 63.148438"
               y="0"
               sodipodi:role="line"
               id="tspan148">DrugBank</tspan></text>
<text
             transform="translate(48.3125,250)"
             style="font-variant:normal;font-weight:normal;font-size:16px;font-family:'Liberation Sans';-inkscape-font-specification:LiberationSans;writing-mode:lr-tb;fill:#000000;fill-opacity:1;fill-rule:nonzero;stroke:none"
             id="text154"><tspan
               x="0 13.328125 22.226562 25.78125 36.453125 45.351562 50.679688 55.125 59.570312 64.898438 75.570312 79.125 88.023438 101.35156 110.25 113.80469 122.70312 130.70312 139.60156 143.15625 152.05469 160.05469"
               y="0"
               sodipodi:role="line"
               id="tspan152">MolPort (Biomolecules)</tspan></text>
<text
             transform="translate(76.75,269)"
             style="font-variant:normal;font-weight:normal;font-size:16px;font-family:'Liberation Sans';-inkscape-font-specification:LiberationSans;writing-mode:lr-tb;fill:#000000;fill-opacity:1;fill-rule:nonzero;stroke:none"
             id="text158"><tspan
               x="0 10.671875 19.570312 28.46875 32.023438 40.023438 44.46875 48.023438 56.023438 64.921875 73.820312 78.265625 88.039062 91.59375 100.49219"
               y="0"
               sodipodi:role="line"
               id="tspan156">Analyticon Zinc</tspan></text>
<text
             transform="translate(82.546875,288)"
             style="font-variant:normal;font-weight:normal;font-size:16px;font-family:'Liberation Sans';-inkscape-font-specification:LiberationSans;writing-mode:lr-tb;fill:#000000;fill-opacity:1;fill-rule:nonzero;stroke:none"
             id="text162"><tspan
               x="0 11.554688 20.453125 31.125 41.796875 46.242188 50.6875 56.015625 64.914062 72.914062 77.359375 86.257812 91.585938"
               y="0"
               sodipodi:role="line"
               id="tspan160">ChEBI (3star)</tspan></text>
<text
             transform="translate(107.4375,307)"
             style="font-variant:normal;font-weight:normal;font-size:16px;font-family:'Liberation Sans';-inkscape-font-specification:LiberationSans;writing-mode:lr-tb;fill:#000000;fill-opacity:1;fill-rule:nonzero;stroke:none"
             id="text166"><tspan
               x="0 11.554688 20.453125 25.78125 29.335938 38.234375"
               y="0"
               sodipodi:role="line"
               id="tspan164">Norine</tspan></text>
<text
             transform="translate(30.078125,326)"
             style="font-variant:normal;font-weight:normal;font-size:16px;font-family:'Liberation Sans';-inkscape-font-specification:LiberationSans;writing-mode:lr-tb;fill:#000000;fill-opacity:1;fill-rule:nonzero;stroke:none"
             id="text170"><tspan
               x="0 10.671875 16 24.898438 33.796875 37.351562 45.351562 49.796875 58.695312 67.59375 72.039062 82.710938 87.15625 92.484375 101.38281 110.28125 114.72656 128.05469 136.05469 144.05469 152.95312 157.39844 165.39844 169.84375 180.51562 193.84375"
               y="0"
               sodipodi:role="line"
               id="tspan168">Predicted Streptmycets SMs</tspan></text>
</g><g
           id="g172"
           transform="matrix(2.9949558,0,0,2.9949558,1.4974779,1.4974779)"><path
             d="m 363,450.04001 -2,-0.04 V 477.4"
             style="fill:none;stroke:#000000;stroke-width:1;stroke-linecap:butt;stroke-linejoin:miter;stroke-miterlimit:10;stroke-dasharray:none;stroke-opacity:1"
             id="path174"
             inkscape:connector-curvature="0" /><path
             d="m 361,484.14999 -4.5,-9 4.5,2.25 4.5,-2.25 z"
             style="fill:#000000;fill-opacity:1;fill-rule:nonzero;stroke:none"
             id="path176"
             inkscape:connector-curvature="0" /><path
             d="m 361,484.14999 -4.5,-9 4.5,2.25 4.5,-2.25 z"
             style="fill:none;stroke:#000000;stroke-width:1;stroke-linecap:butt;stroke-linejoin:miter;stroke-miterlimit:10;stroke-dasharray:none;stroke-opacity:1"
             id="path178"
             inkscape:connector-curvature="0" /><path
             d="m 421,527.5 c 0,1.31006 -0.0963,2.61694 -0.28894,3.92072 -0.19263,1.30377 -0.48062,2.59802 -0.86401,3.88287 -0.38334,1.28491 -0.86023,2.5542 -1.43067,3.8078 -0.57043,1.2536 -1.23166,2.48559 -1.98367,3.69586 -0.75198,1.21039 -1.59113,2.39325 -2.51749,3.54858 -0.92633,1.15534 -1.93536,2.27765 -3.0271,3.36689 -1.0917,1.08929 -2.26089,2.14032 -3.5075,3.15301 -1.24665,1.0127 -2.56473,1.98218 -3.95423,2.90851 -1.38949,0.92633 -2.84378,1.80505 -4.36279,2.63617 -1.51901,0.83105 -3.09549,1.61047 -4.72943,2.33826 -1.63388,0.72784 -3.31732,1.40057 -5.05039,2.01812 -1.73303,0.61762 -3.50729,1.17707 -5.32281,1.67835 -1.81549,0.50134 -3.66348,0.94214 -5.54395,1.32239 -1.88043,0.38031 -3.7843,0.69824 -5.71164,0.95379 -1.9273,0.25556 -3.86877,0.44757 -5.82437,0.57599 C 364.92542,567.43579 362.96509,567.5 361,567.5 c -1.96506,0 -3.92542,-0.0642 -5.88104,-0.19269 -1.9556,-0.12842 -3.89707,-0.32043 -5.8244,-0.57599 -1.92731,-0.25555 -3.83121,-0.57348 -5.71167,-0.95373 -1.88047,-0.38031 -3.72843,-0.82111 -5.54395,-1.32245 -1.81549,-0.50128 -3.58975,-1.06073 -5.32275,-1.67828 -1.73307,-0.61762 -3.41654,-1.29035 -5.05042,-2.01819 -1.63388,-0.72779 -3.21036,-1.50721 -4.72937,-2.33832 -1.51904,-0.83106 -2.97333,-1.70978 -4.36285,-2.63611 -1.3895,-0.92633 -2.70755,-1.89581 -3.95423,-2.90851 -1.24661,-1.01269 -2.4158,-2.06366 -3.50756,-3.15295 -1.09171,-1.08924 -2.10074,-2.21155 -3.02704,-3.36688 -0.92633,-1.1554 -1.76551,-2.33826 -2.51752,-3.54865 -0.75198,-1.21027 -1.41318,-2.44226 -1.98364,-3.69586 -0.57041,-1.2536 -1.04731,-2.52289 -1.4307,-3.8078 -0.38336,-1.28485 -0.67135,-2.5791 -0.86395,-3.88287 C 301.09631,530.11694 301,528.81006 301,527.5 c 0,-1.31006 0.0963,-2.61694 0.28891,-3.92072 0.1926,-1.30371 0.48059,-2.59802 0.86395,-3.88293 0.38339,-1.28485 0.86029,-2.55414 1.43073,-3.80774 0.57043,-1.25372 1.23163,-2.48572 1.98361,-3.69604 0.75201,-1.21033 1.59119,-2.39316 2.51752,-3.5485 0.9263,-1.15536 1.93533,-2.27768 3.02704,-3.36694 1.09176,-1.08923 2.26095,-2.1402 3.50756,-3.15289 1.24668,-1.01267 2.56473,-1.98218 3.95423,-2.90854 1.38952,-0.9263 2.84381,-1.80502 4.36285,-2.63611 1.51901,-0.83109 3.09549,-1.61053 4.72937,-2.33841 1.63388,-0.72781 3.31735,-1.40051 5.05042,-2.01804 1.733,-0.61758 3.50726,-1.17703 5.32275,-1.67837 1.81552,-0.50131 3.66348,-0.94214 5.54395,-1.32242 1.88046,-0.38028 3.78433,-0.69821 5.71164,-0.9538 1.92733,-0.25552 3.86883,-0.44751 5.82443,-0.57589 1.95562,-0.12839 3.91598,-0.19263 5.88104,-0.19266 1.96509,3e-5 3.92542,0.0643 5.88101,0.19266 1.9556,0.12838 3.89707,0.32037 5.82437,0.57589 1.92734,0.25559 3.83121,0.57352 5.71164,0.9538 1.88047,0.38028 3.72846,0.82111 5.54395,1.32242 1.81552,0.50134 3.58978,1.06079 5.32281,1.67837 1.73307,0.61753 3.41651,1.29023 5.05039,2.01804 1.63394,0.72788 3.21039,1.50732 4.7294,2.33841 1.51904,0.83109 2.97333,1.70981 4.36282,2.63611 1.3895,0.92636 2.70758,1.89587 3.95426,2.90854 1.24661,1.01269 2.41577,2.06366 3.50747,3.15289 1.09177,1.08926 2.1008,2.21161 3.02713,3.36697 0.92633,1.15537 1.76551,2.3382 2.51749,3.54853 0.75201,1.21026 1.41324,2.44226 1.98364,3.69598 0.57047,1.2536 1.04737,2.52289 1.4307,3.80774 0.38339,1.28491 0.67138,2.57922 0.86398,3.88293 C 420.90369,524.88306 421,526.18994 421,527.5 Z"
             style="fill:#d5e8d4;fill-opacity:1;fill-rule:nonzero;stroke:none"
             id="path180"
             inkscape:connector-curvature="0" /><path
             d="m 421,527.5 c 0,1.31006 -0.0963,2.61694 -0.28894,3.92072 -0.19263,1.30377 -0.48062,2.59802 -0.86401,3.88287 -0.38334,1.28491 -0.86023,2.5542 -1.43067,3.8078 -0.57043,1.2536 -1.23166,2.48559 -1.98367,3.69586 -0.75198,1.21039 -1.59113,2.39325 -2.51749,3.54858 -0.92633,1.15534 -1.93536,2.27765 -3.0271,3.36689 -1.0917,1.08929 -2.26089,2.14032 -3.5075,3.15301 -1.24665,1.0127 -2.56473,1.98218 -3.95423,2.90851 -1.38949,0.92633 -2.84378,1.80505 -4.36279,2.63617 -1.51901,0.83105 -3.09549,1.61047 -4.72943,2.33826 -1.63388,0.72784 -3.31732,1.40057 -5.05039,2.01812 -1.73303,0.61762 -3.50729,1.17707 -5.32281,1.67835 -1.81549,0.50134 -3.66348,0.94214 -5.54395,1.32239 -1.88043,0.38031 -3.7843,0.69824 -5.71164,0.95379 -1.9273,0.25556 -3.86877,0.44757 -5.82437,0.57599 C 364.92542,567.43579 362.96509,567.5 361,567.5 c -1.96506,0 -3.92542,-0.0642 -5.88104,-0.19269 -1.9556,-0.12842 -3.89707,-0.32043 -5.8244,-0.57599 -1.92731,-0.25555 -3.83121,-0.57348 -5.71167,-0.95373 -1.88047,-0.38031 -3.72843,-0.82111 -5.54395,-1.32245 -1.81549,-0.50128 -3.58975,-1.06073 -5.32275,-1.67828 -1.73307,-0.61762 -3.41654,-1.29035 -5.05042,-2.01819 -1.63388,-0.72779 -3.21036,-1.50721 -4.72937,-2.33832 -1.51904,-0.83106 -2.97333,-1.70978 -4.36285,-2.63611 -1.3895,-0.92633 -2.70755,-1.89581 -3.95423,-2.90851 -1.24661,-1.01269 -2.4158,-2.06366 -3.50756,-3.15295 -1.09171,-1.08924 -2.10074,-2.21155 -3.02704,-3.36688 -0.92633,-1.1554 -1.76551,-2.33826 -2.51752,-3.54865 -0.75198,-1.21027 -1.41318,-2.44226 -1.98364,-3.69586 -0.57041,-1.2536 -1.04731,-2.52289 -1.4307,-3.8078 -0.38336,-1.28485 -0.67135,-2.5791 -0.86395,-3.88287 C 301.09631,530.11694 301,528.81006 301,527.5 c 0,-1.31006 0.0963,-2.61694 0.28891,-3.92072 0.1926,-1.30371 0.48059,-2.59802 0.86395,-3.88293 0.38339,-1.28485 0.86029,-2.55414 1.43073,-3.80774 0.57043,-1.25372 1.23163,-2.48572 1.98361,-3.69604 0.75201,-1.21033 1.59119,-2.39316 2.51752,-3.5485 0.9263,-1.15536 1.93533,-2.27768 3.02704,-3.36694 1.09176,-1.08923 2.26095,-2.1402 3.50756,-3.15289 1.24668,-1.01267 2.56473,-1.98218 3.95423,-2.90854 1.38952,-0.9263 2.84381,-1.80502 4.36285,-2.63611 1.51901,-0.83109 3.09549,-1.61053 4.72937,-2.33841 1.63388,-0.72781 3.31735,-1.40051 5.05042,-2.01804 1.733,-0.61758 3.50726,-1.17703 5.32275,-1.67837 1.81552,-0.50131 3.66348,-0.94214 5.54395,-1.32242 1.88046,-0.38028 3.78433,-0.69821 5.71164,-0.9538 1.92733,-0.25552 3.86883,-0.44751 5.82443,-0.57589 1.95562,-0.12839 3.91598,-0.19263 5.88104,-0.19266 1.96509,3e-5 3.92542,0.0643 5.88101,0.19266 1.9556,0.12838 3.89707,0.32037 5.82437,0.57589 1.92734,0.25559 3.83121,0.57352 5.71164,0.9538 1.88047,0.38028 3.72846,0.82111 5.54395,1.32242 1.81552,0.50134 3.58978,1.06079 5.32281,1.67837 1.73307,0.61753 3.41651,1.29023 5.05039,2.01804 1.63394,0.72788 3.21039,1.50732 4.7294,2.33841 1.51904,0.83109 2.97333,1.70981 4.36282,2.63611 1.3895,0.92636 2.70758,1.89587 3.95426,2.90854 1.24661,1.01269 2.41577,2.06366 3.50747,3.15289 1.09177,1.08926 2.1008,2.21161 3.02713,3.36697 0.92633,1.15537 1.76551,2.3382 2.51749,3.54853 0.75201,1.21026 1.41324,2.44226 1.98364,3.69598 0.57047,1.2536 1.04737,2.52289 1.4307,3.80774 0.38339,1.28491 0.67138,2.57922 0.86398,3.88293 C 420.90369,524.88306 421,526.18994 421,527.5 Z"
             style="fill:none;stroke:#82b366;stroke-width:1;stroke-linecap:butt;stroke-linejoin:miter;stroke-miterlimit:10;stroke-dasharray:none;stroke-opacity:1"
             id="path182"
             inkscape:connector-curvature="0" /></g><g
           id="g184"
           transform="scale(2.9949558)"><text
             transform="translate(336.96875,525)"
             style="font-variant:normal;font-weight:normal;font-size:16px;font-family:'Liberation Sans';-inkscape-font-specification:LiberationSans;writing-mode:lr-tb;fill:#000000;fill-opacity:1;fill-rule:nonzero;stroke:none"
             id="text188"><tspan
               x="0 12.445312 21.34375 25.789062 34.6875 43.585938"
               y="0"
               sodipodi:role="line"
               id="tspan186">Output</tspan></text>
<text
             transform="translate(332.23438,544)"
             style="font-variant:normal;font-weight:normal;font-size:16px;font-family:'Liberation Sans';-inkscape-font-specification:LiberationSans;writing-mode:lr-tb;fill:#000000;fill-opacity:1;fill-rule:nonzero;stroke:none"
             id="text192"><tspan
               x="0 14.8125 23.710938 32.609375 40.609375 44.164062 48.609375"
               y="0"
               sodipodi:role="line"
               id="tspan190">Website</tspan></text>
</g><g
           id="g194"
           transform="matrix(2.9949558,0,0,2.9949558,1.4974779,1.4974779)"><path
             d="m 501,489 h 180 v 77 H 501 Z"
             style="fill:#dae8fc;fill-opacity:1;fill-rule:nonzero;stroke:none"
             id="path196"
             inkscape:connector-curvature="0" /><path
             d="m 501,489 h 180 v 77 H 501 Z"
             style="fill:none;stroke:#6c8ebf;stroke-width:1;stroke-linecap:butt;stroke-linejoin:miter;stroke-miterlimit:10;stroke-dasharray:none;stroke-opacity:1"
             id="path198"
             inkscape:connector-curvature="0" /></g><g
           id="g200"
           transform="scale(2.9949558)"><text
             transform="translate(517.32813,525)"
             style="font-variant:normal;font-weight:normal;font-size:16px;font-family:'Liberation Sans';-inkscape-font-specification:LiberationSans;writing-mode:lr-tb;fill:#000000;fill-opacity:1;fill-rule:nonzero;stroke:none"
             id="text204"><tspan
               x="0 10.671875 18.671875 27.570312 31.726562 36.171875 45.070312 48.625 57.523438 61.96875 75.296875 84.195312 93.09375 96.648438 101.09375 104.64844 112.64844 121.54688 125.99219 129.54688 138.44531"
               y="0"
               sodipodi:role="line"
               id="tspan202">Scaffold modification</tspan></text>
<text
             transform="translate(541.64063,544)"
             style="font-variant:normal;font-weight:normal;font-size:16px;font-family:'Liberation Sans';-inkscape-font-specification:LiberationSans;writing-mode:lr-tb;fill:#000000;fill-opacity:1;fill-rule:nonzero;stroke:none"
             id="text208"><tspan
               x="0 5.328125 14.226562 22.226562 31.125 36.453125 40.898438 49.796875 58.695312 63.140625 66.695312 75.59375 84.492188 93.390625"
               y="0"
               sodipodi:role="line"
               id="tspan206">(user defined)</tspan></text>
</g><g
           id="g210"
           transform="matrix(2.9949558,0,0,2.9949558,1.4974779,1.4974779)"><path
             d="M 591,489 V 210.10001"
             style="fill:none;stroke:#000000;stroke-width:1;stroke-linecap:butt;stroke-linejoin:miter;stroke-miterlimit:10;stroke-dasharray:none;stroke-opacity:1"
             id="path212"
             inkscape:connector-curvature="0" /><path
             d="m 591,203.35001 4.5,9 -4.5,-2.25 -4.5,2.25 z"
             style="fill:#000000;fill-opacity:1;fill-rule:nonzero;stroke:none"
             id="path214"
             inkscape:connector-curvature="0" /><path
             d="m 591,203.35001 4.5,9 -4.5,-2.25 -4.5,2.25 z"
             style="fill:none;stroke:#000000;stroke-width:1;stroke-linecap:butt;stroke-linejoin:miter;stroke-miterlimit:10;stroke-dasharray:none;stroke-opacity:1"
             id="path216"
             inkscape:connector-curvature="0" /><path
             d="m 331,1 h 60 l 30,40 -30,40 H 331 L 301,41 Z"
             style="fill:#e1d5e7;fill-opacity:1;fill-rule:nonzero;stroke:none"
             id="path218"
             inkscape:connector-curvature="0" /><path
             d="m 331,1 h 60 l 30,40 -30,40 H 331 L 301,41 Z"
             style="fill:none;stroke:#9673a6;stroke-width:1;stroke-linecap:butt;stroke-linejoin:miter;stroke-miterlimit:10;stroke-dasharray:none;stroke-opacity:1"
             id="path220"
             inkscape:connector-curvature="0" /></g><g
           id="g222"
           transform="scale(2.9949558)"><text
             transform="translate(323.20313,38)"
             style="font-variant:normal;font-weight:normal;font-size:16px;font-family:'Liberation Sans';-inkscape-font-specification:LiberationSans;writing-mode:lr-tb;fill:#000000;fill-opacity:1;fill-rule:nonzero;stroke:none"
             id="text226"><tspan
               x="0 10.671875 16 24.898438 33.796875 37.351562 45.351562 49.796875 53.351562 62.25 71.148438"
               y="0"
               sodipodi:role="line"
               id="tspan224">Prediction </tspan></text>
<text
             transform="translate(333.42188,57)"
             style="font-variant:normal;font-weight:normal;font-size:16px;font-family:'Liberation Sans';-inkscape-font-specification:LiberationSans;writing-mode:lr-tb;fill:#000000;fill-opacity:1;fill-rule:nonzero;stroke:none"
             id="text230"><tspan
               x="0 8.8984375 12.453125 21.351562 30.25 33.804688 37.359375 46.257812"
               y="0"
               sodipodi:role="line"
               id="tspan228">pipeline</tspan></text>
</g><g
           id="g232"
           transform="matrix(2.9949558,0,0,2.9949558,1.4974779,1.4974779)"><path
             d="M 42.849998,356 H 219.14999 c 0.77808,0 1.54868,0.0759 2.31179,0.22766 0.76312,0.1518 1.50412,0.37656 2.22297,0.67432 0.71886,0.29776 1.40177,0.66278 2.04871,1.09503 0.64696,0.43228 1.24554,0.92355 1.79573,1.47375 0.55019,0.55018 1.04141,1.14875 1.47369,1.79569 0.4323,0.64694 0.79732,1.32983 1.09507,2.04871 0.29776,0.71884 0.52253,1.45983 0.67433,2.22299 0.15181,0.76315 0.22772,1.53378 0.22772,2.31186 v 55.29998 c 0,0.77808 -0.0759,1.54868 -0.22771,2.31177 -0.15179,0.76312 -0.37657,1.50412 -0.67433,2.22299 -0.29776,0.71884 -0.66278,1.40174 -1.09506,2.04871 -0.43227,0.64694 -0.92349,1.24551 -1.47368,1.79571 -0.55019,0.55018 -1.14877,1.04139 -1.79573,1.47367 -0.64696,0.43228 -1.32986,0.7973 -2.04872,1.09506 -0.71886,0.29776 -1.45986,0.52252 -2.22298,0.67435 -0.76312,0.15182 -1.53372,0.22772 -2.3118,0.22775 H 42.849998 c -0.778083,-3e-5 -1.54869,-0.0759 -2.311821,-0.22775 -0.763134,-0.15183 -1.504131,-0.37659 -2.222984,-0.67435 -0.718853,-0.29776 -1.401756,-0.66278 -2.04871,-1.09506 -0.646949,-0.43228 -1.245517,-0.92349 -1.795704,-1.47367 -0.55019,-0.5502 -1.041423,-1.14877 -1.473701,-1.79571 -0.432278,-0.64697 -0.797298,-1.32987 -1.095055,-2.04871 -0.297758,-0.71887 -0.522535,-1.45987 -0.674331,-2.22296 C 31.075895,424.69867 30.999998,423.92807 31,423.14999 v -55.29998 c -2e-6,-0.77808 0.07589,-1.54871 0.227692,-2.31186 0.151796,-0.76313 0.376573,-1.50412 0.674331,-2.22296 0.297757,-0.71888 0.662777,-1.4018 1.095055,-2.04874 0.432281,-0.64694 0.923515,-1.24551 1.473705,-1.79569 0.550186,-0.5502 1.148754,-1.04144 1.7957,-1.47372 0.646954,-0.43228 1.329857,-0.7973 2.04871,-1.09506 0.718853,-0.29776 1.45985,-0.52252 2.222984,-0.67429 C 41.301308,356.0759 42.071915,356 42.849998,356 Z"
             style="fill:#f8cecc;fill-opacity:1;fill-rule:nonzero;stroke:none"
             id="path234"
             inkscape:connector-curvature="0" /><path
             d="M 42.849998,356 H 219.14999 c 0.77808,0 1.54868,0.0759 2.31179,0.22766 0.76312,0.1518 1.50412,0.37656 2.22297,0.67432 0.71886,0.29776 1.40177,0.66278 2.04871,1.09503 0.64696,0.43228 1.24554,0.92355 1.79573,1.47375 0.55019,0.55018 1.04141,1.14875 1.47369,1.79569 0.4323,0.64694 0.79732,1.32983 1.09507,2.04871 0.29776,0.71884 0.52253,1.45983 0.67433,2.22299 0.15181,0.76315 0.22772,1.53378 0.22772,2.31186 v 55.29998 c 0,0.77808 -0.0759,1.54868 -0.22771,2.31177 -0.15179,0.76312 -0.37657,1.50412 -0.67433,2.22299 -0.29776,0.71884 -0.66278,1.40174 -1.09506,2.04871 -0.43227,0.64694 -0.92349,1.24551 -1.47368,1.79571 -0.55019,0.55018 -1.14877,1.04139 -1.79573,1.47367 -0.64696,0.43228 -1.32986,0.7973 -2.04872,1.09506 -0.71886,0.29776 -1.45986,0.52252 -2.22298,0.67435 -0.76312,0.15182 -1.53372,0.22772 -2.3118,0.22775 H 42.849998 c -0.778083,-3e-5 -1.54869,-0.0759 -2.311821,-0.22775 -0.763134,-0.15183 -1.504131,-0.37659 -2.222984,-0.67435 -0.718853,-0.29776 -1.401756,-0.66278 -2.04871,-1.09506 -0.646949,-0.43228 -1.245517,-0.92349 -1.795704,-1.47367 -0.55019,-0.5502 -1.041423,-1.14877 -1.473701,-1.79571 -0.432278,-0.64697 -0.797298,-1.32987 -1.095055,-2.04871 -0.297758,-0.71887 -0.522535,-1.45987 -0.674331,-2.22296 C 31.075895,424.69867 30.999998,423.92807 31,423.14999 v -55.29998 c -2e-6,-0.77808 0.07589,-1.54871 0.227692,-2.31186 0.151796,-0.76313 0.376573,-1.50412 0.674331,-2.22296 0.297757,-0.71888 0.662777,-1.4018 1.095055,-2.04874 0.432281,-0.64694 0.923515,-1.24551 1.473705,-1.79569 0.550186,-0.5502 1.148754,-1.04144 1.7957,-1.47372 0.646954,-0.43228 1.329857,-0.7973 2.04871,-1.09506 0.718853,-0.29776 1.45985,-0.52252 2.222984,-0.67429 C 41.301308,356.0759 42.071915,356 42.849998,356 Z"
             style="fill:none;stroke:#b85450;stroke-width:1;stroke-linecap:butt;stroke-linejoin:miter;stroke-miterlimit:10;stroke-dasharray:none;stroke-opacity:1"
             id="path236"
             inkscape:connector-curvature="0" /></g><g
           id="g238"
           transform="scale(2.9949558)"><text
             transform="translate(48.28125,393)"
             style="font-variant:normal;font-weight:normal;font-size:16px;font-family:'Liberation Sans';-inkscape-font-specification:LiberationSans;writing-mode:lr-tb;fill:#000000;fill-opacity:1;fill-rule:nonzero;stroke:none"
             id="text242"><tspan
               x="0 11.554688 19.554688 28.453125 33.78125 38.226562 47.125 56.023438 60.46875 64.023438 72.921875 81.820312 90.71875 95.164062 104.0625 112.96094 117.40625 126.30469 135.20312 144.10156 152.10156 161"
               y="0"
               sodipodi:role="line"
               id="tspan240">User defined database </tspan></text>
<text
             transform="translate(43.875,412)"
             style="font-variant:normal;font-weight:normal;font-size:16px;font-family:'Liberation Sans';-inkscape-font-specification:LiberationSans;writing-mode:lr-tb;fill:#000000;fill-opacity:1;fill-rule:nonzero;stroke:none"
             id="text246"><tspan
               x="0 5.328125 16 27.554688 37.328125 41.773438 50.671875 56 60.445312 71.117188 84.445312 88.890625 97.789062 108.46094 119.13281 123.57812 128.02344 136.92188 142.25 155.57812 164.47656 168.92188"
               y="0"
               sodipodi:role="line"
               id="tspan244">(SDF or SMILES format)</tspan></text>
</g><g
           id="g248"
           transform="matrix(2.9949558,0,0,2.9949558,1.4974779,1.4974779)"><path
             d="m 421,527.5 h 69.89999"
             style="fill:none;stroke:#000000;stroke-width:1;stroke-linecap:butt;stroke-linejoin:miter;stroke-miterlimit:10;stroke-dasharray:none;stroke-opacity:1"
             id="path250"
             inkscape:connector-curvature="0" /><path
             d="m 497.64999,527.5 -9,4.5 2.25,-4.5 -2.25,-4.5 z"
             style="fill:#000000;fill-opacity:1;fill-rule:nonzero;stroke:none"
             id="path252"
             inkscape:connector-curvature="0" /><path
             d="m 497.64999,527.5 -9,4.5 2.25,-4.5 -2.25,-4.5 z"
             style="fill:none;stroke:#000000;stroke-width:1;stroke-linecap:butt;stroke-linejoin:miter;stroke-miterlimit:10;stroke-dasharray:none;stroke-opacity:1"
             id="path254"
             inkscape:connector-curvature="0" /><path
             d="M 261,331 H 511 V 451 H 261 Z"
             style="fill:#fff2cc;fill-opacity:1;fill-rule:nonzero;stroke:none"
             id="path256"
             inkscape:connector-curvature="0" /><path
             d="M 261,331 H 511 V 451 H 261 Z"
             style="fill:none;stroke:#d6b656;stroke-width:1;stroke-linecap:butt;stroke-linejoin:miter;stroke-miterlimit:10;stroke-dasharray:none;stroke-opacity:1"
             id="path258"
             inkscape:connector-curvature="0" /></g><g
           id="g260"
           transform="scale(2.9949558)"><text
             transform="translate(298.84375,369)"
             style="font-variant:normal;font-weight:normal;font-size:16px;font-family:'Liberation Sans';-inkscape-font-specification:LiberationSans;writing-mode:lr-tb;fill:#000000;fill-opacity:1;fill-rule:nonzero;stroke:none"
             id="text264"><tspan
               x="0 10.671875 19.570312 27.570312 36.46875 49.796875 58.695312 62.25 71.148438 75.59375 83.59375 91.59375 100.49219 105.82031 109.375 118.27344 127.17188 131.61719 140.51562 148.51562 152.07031 160.96875 169.86719"
               y="0"
               sodipodi:role="line"
               id="tspan262">Ensemble scoring using:</tspan></text>
<text
             transform="translate(351.32813,388)"
             style="font-variant:normal;font-weight:normal;font-size:16px;font-family:'Liberation Sans';-inkscape-font-specification:LiberationSans;writing-mode:lr-tb;fill:#000000;fill-opacity:1;fill-rule:nonzero;stroke:none"
             id="text268"><tspan
               x="0 10.671875 14.226562 27.554688 31.109375 34.664062 43.5625 48.890625 52.445312 56.890625 64.890625"
               y="0"
               sodipodi:role="line"
               id="tspan266">Similarity;</tspan></text>
<text
             transform="translate(274.85938,407)"
             style="font-variant:normal;font-weight:normal;font-size:16px;font-family:'Liberation Sans';-inkscape-font-specification:LiberationSans;writing-mode:lr-tb;fill:#000000;fill-opacity:1;fill-rule:nonzero;stroke:none"
             id="text272"><tspan
               x="0 13.328125 22.226562 30.226562 33.78125 47.109375 50.664062 63.992188 68.4375 76.4375 85.335938 98.664062 111.99219 120.89062 129.78906 134.23438 142.23438 151.13281 160.03125 168.03125 172.47656 177.80469 186.70312 194.70312 203.60156 208.92969 217.82812"
               y="0"
               sodipodi:role="line"
               id="tspan270">Maximim common substrucure;</tspan></text>
<text
             transform="translate(293.51563,426)"
             style="font-variant:normal;font-weight:normal;font-size:16px;font-family:'Liberation Sans';-inkscape-font-specification:LiberationSans;writing-mode:lr-tb;fill:#000000;fill-opacity:1;fill-rule:nonzero;stroke:none"
             id="text276"><tspan
               x="0 10.671875 19.570312 27.570312 32.015625 40.015625 48.015625 56.914062 61.359375 70.257812 79.15625 83.601562 87.15625 95.15625 99.601562 112.92969 121.82812 130.72656 134.28125 138.72656 142.28125 150.28125 159.17969 163.625 167.17969 176.07812"
               y="0"
               sodipodi:role="line"
               id="tspan274">Postsynthetic modification</tspan></text>
</g></g></g></g></svg>